<svg width="103" height="103" viewBox="0 0 103 103" fill="none" xmlns="http://www.w3.org/2000/svg">
<path d="M59.5051 49.3135C60.017 35.8334 69.4872 27.131 74.7769 28.9653C96.0209 36.3453 93.8027 80.7103 87.1479 84.5922C81.3037 88.0049 65.9039 83.6963 62.3633 75.6339C61.0409 72.6051 60.145 67.7847 59.7184 62.3244" stroke="#FAFAFA" stroke-width="8.53172" stroke-linecap="round" stroke-linejoin="round"/>
<path d="M43.7212 49.3135C43.2093 35.8334 33.7391 27.131 28.4494 28.9653C7.20546 36.3453 9.42372 80.7103 16.0785 84.5922C21.9227 88.0049 37.3224 83.6963 40.8631 75.6339C42.1855 72.6051 43.0813 67.7847 43.5079 62.3244" stroke="#FAFAFA" stroke-width="8.53172" stroke-linecap="round" stroke-linejoin="round"/>
<path d="M51.613 16.9783V36.6013C51.613 41.4217 49.1388 45.9008 45.0862 48.4604L35.7866 54.3472" stroke="#FAFAFA" stroke-width="8.53172" stroke-linecap="round" stroke-linejoin="round"/>
<path d="M51.6128 16.9783V36.6013C51.6128 41.4217 54.087 45.9008 58.1396 48.4604L67.4391 54.3472" stroke="#FAFAFA" stroke-width="8.53172" stroke-linecap="round" stroke-linejoin="round"/>
</svg>
