<svg width="104" height="103" viewBox="0 0 104 103" fill="red" xmlns="http://www.w3.org/2000/svg">
<path d="M60.102 42.8426C64.2825 42.9279 68.0791 44.6769 70.8093 47.4071C73.6247 50.2652 75.3737 54.1472 75.3737 58.4557C75.3737 67.0727 68.3777 74.0687 59.718 74.0687H34.6348" stroke="#FAFAFA" stroke-width="8.53172" stroke-linecap="round" stroke-linejoin="round"/>
<path d="M75.4167 89.7671H28.4922" stroke="#FAFAFA" stroke-width="8.53172" stroke-linecap="round" stroke-linejoin="round"/>
<path d="M58.3956 23.8596C54.3004 22.4518 49.8639 24.6274 48.4561 28.7226L40.6923 51.289C39.2845 55.3843 41.4601 59.8208 45.5553 61.2285C49.6506 62.6362 54.0871 60.4607 55.4948 56.3654L63.2587 33.799C64.6664 29.7038 62.4908 25.2673 58.3956 23.8596Z" stroke="#FAFAFA" stroke-width="8.53172" stroke-linecap="round" stroke-linejoin="round"/>
<path d="M58.396 23.8595L62.15 12.9816" stroke="#FAFAFA" stroke-width="8.53172" stroke-linecap="round" stroke-linejoin="round"/>
<path d="M62.1494 74.0687L67.5244 89.7671" stroke="#FAFAFA" stroke-width="8.53172" stroke-linecap="round" stroke-linejoin="round"/>
</svg>
