<?xml version="1.0" encoding="iso-8859-1"?>
<!-- Uploaded to: SVG Repo, www.svgrepo.com, Generator: SVG Repo Mixer Tools -->
<svg version="1.1" id="Layer_1" xmlns="http://www.w3.org/2000/svg" xmlns:xlink="http://www.w3.org/1999/xlink" 
	 viewBox="0 0 460 460" xml:space="preserve">
<g id="XMLID_1073_">
	<path id="XMLID_1074_" style="fill:#DA5B66;" d="M230,0C102.975,0,0,102.975,0,230c0,97.715,60.941,181.187,146.886,214.511
		L444.51,146.885C411.187,60.941,327.715,0,230,0z"/>
	<path id="XMLID_72_" style="fill:#BD0A13;" d="M87.688,385.313l59.198,59.198C172.665,454.506,200.69,460,230,460
		c127.025,0,230-102.974,230-230c0-29.31-5.494-57.335-15.49-83.115l-72.198-72.198L87.688,385.313z"/>
	<path id="XMLID_70_" style="fill:#A3DDE9;" d="M257,60h40l10,170l-10,170h-40c-27.5,0-50-22.5-50-50V110C207,82.5,229.5,60,257,60z
		"/>
	<path id="XMLID_1075_" style="fill:#FFFFFF;" d="M237,110c0,11.046,8.954,20,20,20l10-20l-10-20C245.954,90,237,98.954,237,110z"/>
	<path id="XMLID_1076_" style="fill:#F6EBE9;" d="M257,90v40c11.046,0,20-8.954,20-20S268.046,90,257,90z"/>
	<path id="XMLID_1077_" style="fill:#FFFFFF;" d="M237,170c0,11.046,8.954,20,20,20l10-20l-10-20C245.954,150,237,158.954,237,170z"
		/>
	<path id="XMLID_1078_" style="fill:#F6EBE9;" d="M257,150v40c11.046,0,20-8.954,20-20S268.046,150,257,150z"/>
	<path id="XMLID_65_" style="fill:#82C8DB;" d="M337,60h-40v340h40c27.5,0,50-22.5,50-50V110C387,82.5,364.5,60,337,60z"/>
	<path id="XMLID_1079_" style="fill:#F6EBE9;" d="M317,110c0,11.046,8.954,20,20,20l10-20l-10-20C325.954,90,317,98.954,317,110z"/>
	<path id="XMLID_1080_" style="fill:#F7CAC9;" d="M337,90v40c11.046,0,20-8.954,20-20S348.046,90,337,90z"/>
	<path id="XMLID_1081_" style="fill:#F6EBE9;" d="M317,170c0,11.046,8.954,20,20,20l10-20l-10-20C325.954,150,317,158.954,317,170z"
		/>
	<path id="XMLID_1082_" style="fill:#F7CAC9;" d="M337,150v40c11.046,0,20-8.954,20-20S348.046,150,337,150z"/>
	<path id="XMLID_1083_" style="fill:#F6EBE9;" d="M317,230c0,11.046,8.954,20,20,20l10-20l-10-20C325.954,210,317,218.954,317,230z"
		/>
	<path id="XMLID_1084_" style="fill:#F7CAC9;" d="M337,210v40c11.046,0,20-8.954,20-20S348.046,210,337,210z"/>
	<path id="XMLID_1085_" style="fill:#F6EBE9;" d="M317,290c0,11.046,8.954,20,20,20l10-20l-10-20C325.954,270,317,278.954,317,290z"
		/>
	<path id="XMLID_1086_" style="fill:#F7CAC9;" d="M337,270v40c11.046,0,20-8.954,20-20S348.046,270,337,270z"/>
	<path id="XMLID_1087_" style="fill:#F6EBE9;" d="M317,350c0,11.046,8.954,20,20,20l10-20l-10-20C325.954,330,317,338.954,317,350z"
		/>
	<path id="XMLID_1088_" style="fill:#F7CAC9;" d="M337,330v40c11.046,0,20-8.954,20-20S348.046,330,337,330z"/>
	<path id="XMLID_54_" style="fill:#F7B93F;" d="M123,150v40c-27.5,0-50,22.5-50,50v110c0,27.5,22.5,50,50,50h62l10-120l-10-130H123z
		"/>
	<path id="XMLID_53_" style="fill:#F77A20;" d="M247,190v-40h-62v250h62c27.5,0,50-22.5,50-50V240C297,212.5,274.5,190,247,190z"/>
	<polygon id="XMLID_52_" style="fill:#FFFFFF;" points="185,360 93,360 93,230 185,230 195,295 	"/>
	<rect id="XMLID_51_" x="185" y="230" style="fill:#D1EEF4;" width="92" height="130"/>
	<path id="XMLID_50_" style="fill:#EEA0A5;" d="M165,275c-11.046,0-20,8.954-20,20s8.954,20,20,20s20,0,20,0v-40
		C185,275,176.046,275,165,275z"/>
	<path id="XMLID_49_" style="fill:#D93722;" d="M205,275c-11.046,0-20,0-20,0v40c0,0,8.954,0,20,0s20-8.954,20-20
		S216.046,275,205,275z"/>
	<polygon id="XMLID_48_" style="fill:#A3DDE9;" points="145,160 105,160 105,120 145,120 155,140 	"/>
	<polygon id="XMLID_47_" style="fill:#82C8DB;" points="185,160 145,160 145,120 185,120 195,140 	"/>
	<polygon id="XMLID_46_" style="fill:#62B3CD;" points="225,160 185,160 185,120 225,120 235,140 	"/>
	<rect id="XMLID_45_" x="225" y="120" style="fill:#419EBE;" width="40" height="40"/>
</g>
</svg>